# xmcd
#
# Track frame offsets:
#	150
#	22387
#	38062
#	53190
#	77645
#	93935
#	116454
#	126842
#	135190
#	142222
#	157615
#	158730
#	164359
#	197650
#	210977
#	239237
#	264145
#
# Disc length: 3780 seconds
#
# Revision: 1
# Processed by: cddbd v1.5.2PL0 Copyright (c) Steve Scherf et al.
# Submitted via: audiograbber 1.83.01
#
DISCID=de0ec211
DTITLE=Celtica - Volume 35
DYEAR=2005
DGENRE=celtic
TTITLE0=Nusa - Margaret's reel - Ceridwen and Martin's Nusa Lembongan Wedding
TTITLE1=Harem Scarem - Never
TTITLE2=Harem Scarem - Wrigley Heeed: Miss Jennifer Wrigley - Andy's Head
TTITLE3=Eileen Ivers and Immigrant Soul - Paddy in Zululand: Lord Mc Donalds - Da
TTITLE3=ncers Delight
TTITLE4=Mat Walklate: Joe Madden's - The providence - Paddy Fahy's
TTITLE5=Massimo Giuntini - Maid of Mt Cisco - Bucks of Oranmore - Micho Russell
TTITLE5='s
TTITLE6=Mat Walklate - Anderson's - Lord Gordon
TTITLE7=Real Banda de Gaitas - Companero Sei Tocar
TTITLE8=Triolet - Tirou Lirou Pan Gratà
TTITLE9=Gill Hunter - Prelude - Anne Laurie's jig
TTITLE10=Real Banda de Gaitas - Loia aos Noivos Reais
TTITLE11=Real Banda de Gaitas - Na Feria de San Saturnino
TTITLE12=Planet Woman - Malie
TTITLE13=Christy O'Leary and Bert Deivert - The Watchover Set: The Humors of Cast
TTITLE13=lefin - Spoil the Dance
TTITLE14=Gill Hunter - The Return
TTITLE15=Crot No. Five - Party in the Arc
TTITLE16=Nusa - Duanag Bhleoghainn
EXTD=
EXTT0=
EXTT1=
EXTT2=
EXTT3=
EXTT4=
EXTT5=
EXTT6=
EXTT7=
EXTT8=
EXTT9=
EXTT10=
EXTT11=
EXTT12=
EXTT13=
EXTT14=
EXTT15=
EXTT16=
PLAYORDER=
